<svg xmlns="http://www.w3.org/2000/svg" viewBox="0 0 64 64">
  <!-- Background -->
  <rect width="64" height="64" rx="12" fill="#001437"/>

  <!-- AI Brain icon -->
  <path d="M32 12 L38 18 L44 14 L48 20 L54 22 L52 28 L56 34 L52 40 L54 46 L48 48 L44 54 L38 50 L32 56 L26 50 L20 54 L16 48 L10 46 L12 40 L8 34 L12 28 L10 22 L16 20 L20 14 L26 18 Z"
        fill="none" stroke="#5FB6DB" stroke-width="2" stroke-linecap="round" stroke-linejoin="round"/>

  <!-- Center nodes -->
  <circle cx="32" cy="32" r="4" fill="#5FB6DB"/>
  <circle cx="24" cy="24" r="2.5" fill="#5FB6DB" opacity="0.7"/>
  <circle cx="40" cy="24" r="2.5" fill="#5FB6DB" opacity="0.7"/>
  <circle cx="24" cy="40" r="2.5" fill="#5FB6DB" opacity="0.7"/>
  <circle cx="40" cy="40" r="2.5" fill="#5FB6DB" opacity="0.7"/>

  <!-- Connection lines -->
  <line x1="32" y1="32" x2="24" y2="24" stroke="#5FB6DB" stroke-width="1.5" opacity="0.5"/>
  <line x1="32" y1="32" x2="40" y2="24" stroke="#5FB6DB" stroke-width="1.5" opacity="0.5"/>
  <line x1="32" y1="32" x2="24" y2="40" stroke="#5FB6DB" stroke-width="1.5" opacity="0.5"/>
  <line x1="32" y1="32" x2="40" y2="40" stroke="#5FB6DB" stroke-width="1.5" opacity="0.5"/>
</svg>
